<svg xmlns="http://www.w3.org/2000/svg" width="1280" height="1280" viewBox="0 0 1280 1280">
  <defs>
    <linearGradient id="grass" x1="0" y1="0" x2="1" y2="1">
      <stop offset="0" stop-color="#3f5f3c"/>
      <stop offset="0.5" stop-color="#6f7648"/>
      <stop offset="1" stop-color="#445d3a"/>
    </linearGradient>
    <linearGradient id="asphalt" x1="0" y1="0" x2="1" y2="0">
      <stop offset="0" stop-color="#444743"/>
      <stop offset="0.5" stop-color="#5a5c56"/>
      <stop offset="1" stop-color="#3a3d3a"/>
    </linearGradient>
    <filter id="texture" x="-10%" y="-10%" width="120%" height="120%">
      <feTurbulence type="fractalNoise" baseFrequency="0.018" numOctaves="5" seed="43"/>
      <feColorMatrix type="saturate" values="0.32"/>
      <feBlend mode="multiply" in="SourceGraphic"/>
    </filter>
    <filter id="softShadow" x="-20%" y="-20%" width="140%" height="140%">
      <feDropShadow dx="3" dy="5" stdDeviation="5" flood-color="#1e241c" flood-opacity="0.35"/>
    </filter>
  </defs>

  <rect width="1280" height="1280" fill="url(#grass)"/>
  <g filter="url(#texture)">
    <rect width="1280" height="1280" fill="#7a7449" opacity="0.18"/>
    <path d="M-80 190 C180 140 280 260 520 205 C760 150 940 170 1360 70 L1360 0 L-80 0 Z" fill="#2f4934" opacity="0.45"/>
    <path d="M-60 1000 C180 900 350 1020 610 950 C820 895 1040 930 1360 850 L1360 1280 L-60 1280 Z" fill="#354c32" opacity="0.45"/>
    <path d="M120 620 C290 570 410 610 520 690 C700 820 880 770 1110 705 C1200 680 1295 680 1360 690 L1360 1290 L-50 1290 L-50 765 C20 705 45 650 120 620 Z" fill="#7b7046" opacity="0.35"/>
  </g>

  <g opacity="0.85">
    <path d="M-80 860 C170 780 360 775 545 850 C760 935 1020 900 1360 760" fill="none" stroke="#333834" stroke-width="92" stroke-linecap="round"/>
    <path d="M-80 860 C170 780 360 775 545 850 C760 935 1020 900 1360 760" fill="none" stroke="#6d6d64" stroke-width="64" stroke-linecap="round"/>
    <path d="M-40 220 C210 310 330 470 505 575 C740 715 1010 650 1340 545" fill="none" stroke="#2e3433" stroke-width="78" stroke-linecap="round"/>
    <path d="M-40 220 C210 310 330 470 505 575 C740 715 1010 650 1340 545" fill="none" stroke="#63665f" stroke-width="52" stroke-linecap="round"/>
    <path d="M725 -70 C690 170 700 330 790 500 C900 710 955 915 920 1360" fill="none" stroke="#303633" stroke-width="82" stroke-linecap="round"/>
    <path d="M725 -70 C690 170 700 330 790 500 C900 710 955 915 920 1360" fill="none" stroke="#686961" stroke-width="54" stroke-linecap="round"/>
  </g>

  <g filter="url(#softShadow)" opacity="0.9">
    <g transform="rotate(-7 278 438)">
      <rect x="120" y="315" width="310" height="190" rx="8" fill="#9d9a87"/>
      <rect x="135" y="330" width="280" height="160" rx="4" fill="#767b70"/>
      <rect x="155" y="350" width="72" height="52" fill="#b9b6a0" opacity="0.85"/>
      <rect x="250" y="350" width="72" height="52" fill="#b9b6a0" opacity="0.85"/>
      <rect x="345" y="350" width="50" height="120" fill="#565b56" opacity="0.85"/>
      <rect x="155" y="420" width="167" height="50" fill="#4f574e" opacity="0.85"/>
    </g>
    <g transform="rotate(12 535 1038)">
      <rect x="390" y="930" width="300" height="215" rx="8" fill="#8f8b78"/>
      <rect x="410" y="950" width="260" height="175" fill="#5d655e"/>
      <rect x="430" y="970" width="85" height="62" fill="#b1ad96" opacity="0.8"/>
      <rect x="535" y="970" width="115" height="62" fill="#4d584f" opacity="0.9"/>
      <rect x="430" y="1050" width="220" height="55" fill="#a6a28d" opacity="0.72"/>
    </g>
    <g transform="rotate(-18 1040 295)">
      <rect x="875" y="205" width="340" height="180" rx="8" fill="#a09d8b"/>
      <rect x="895" y="225" width="300" height="140" fill="#676f66"/>
      <rect x="915" y="245" width="80" height="100" fill="#b6b29b" opacity="0.8"/>
      <rect x="1015" y="245" width="160" height="42" fill="#485149" opacity="0.85"/>
      <rect x="1015" y="305" width="160" height="40" fill="#a8a38d" opacity="0.75"/>
    </g>
  </g>

  <g opacity="0.55">
    <rect x="40" y="72" width="130" height="90" fill="#4b5d45" transform="rotate(8 105 117)"/>
    <rect x="1080" y="1010" width="140" height="100" fill="#556245" transform="rotate(-15 1150 1060)"/>
    <rect x="1020" y="112" width="90" height="70" fill="#747252" transform="rotate(18 1065 147)"/>
    <rect x="182" y="1095" width="115" height="78" fill="#394f37" transform="rotate(-10 240 1134)"/>
  </g>

  <g opacity="0.32" stroke="#c7c0a6" stroke-width="3">
    <path d="M0 420 C210 360 335 420 500 500"/>
    <path d="M820 0 C820 240 900 360 1060 470"/>
    <path d="M65 1190 C230 1120 360 1135 510 1215"/>
  </g>
</svg>
